<?xml version="1.0" encoding="UTF-8" standalone="no"?>
<!-- Created with Inkscape (http://www.inkscape.org/) -->

<svg
   width="210mm"
   height="297mm"
   viewBox="0 0 210 297"
   version="1.1"
   id="svg8357"
   inkscape:version="1.2.2 (b0a8486541, 2022-12-01)"
   sodipodi:docname="musical_note.svg"
   xmlns:inkscape="http://www.inkscape.org/namespaces/inkscape"
   xmlns:sodipodi="http://sodipodi.sourceforge.net/DTD/sodipodi-0.dtd"
   xmlns="http://www.w3.org/2000/svg"
   xmlns:svg="http://www.w3.org/2000/svg">
  <sodipodi:namedview
     id="namedview8359"
     pagecolor="#ffffff"
     bordercolor="#666666"
     borderopacity="1.0"
     inkscape:showpageshadow="2"
     inkscape:pageopacity="0.0"
     inkscape:pagecheckerboard="0"
     inkscape:deskcolor="#d1d1d1"
     inkscape:document-units="mm"
     showgrid="false"
     inkscape:zoom="1.4859428"
     inkscape:cx="165.21498"
     inkscape:cy="265.15153"
     inkscape:window-width="1920"
     inkscape:window-height="979"
     inkscape:window-x="1920"
     inkscape:window-y="32"
     inkscape:window-maximized="1"
     inkscape:current-layer="layer1" />
  <defs
     id="defs8354" />
  <g
     inkscape:label="Layer 1"
     inkscape:groupmode="layer"
     id="layer1">
    <path
       id="path48280"
       style="font-style:normal;font-variant:normal;font-weight:bold;font-stretch:normal;font-size:22.1823px;line-height:1.25;font-family:'Trebuchet MS';-inkscape-font-specification:'Trebuchet MS Bold';fill:#828282;fill-opacity:1;stroke:#000000;stroke-width:0.587999;stroke-miterlimit:4;stroke-dasharray:none;stroke-opacity:1"
       d="m 17.216611,9.1626161 -4.96508,12.2979599 c -0.24163,-0.33832 -0.61901,-0.61218 -1.13533,-0.82062 -0.38166,-0.15409 -0.75883,-0.21314 -1.1317102,-0.17674 -0.37018,0.0297 -0.73515,0.12374 -1.09502,0.28216 -0.33166,0.14643 -0.6332,0.34367 -0.90486,0.59221 -0.26226,0.24453 -0.46639,0.54792 -0.61236,0.9095 -0.24594,0.60931 -0.2655,1.15819 -0.0579,1.64693 0.21702,0.48474 0.66057,0.86244 1.33015,1.13275 0.38165,0.15408 0.75883,0.21262 1.13171,0.17621 0.3728802,-0.0363 0.7378702,-0.13045 1.0950302,-0.28215 0.35716,-0.15174 0.66233,-0.34752 0.91519,-0.58808 0.14075,-0.13618 0.26301,-0.29164 0.37052,-0.4625 l 0.27957,0.11265 4.41575,-10.938345 c 0.32139,0.287552 0.60015,0.604009 0.8294,0.954463 0.14013,0.212307 0.26454,0.45361 0.37363,0.723469 0.11848,0.265874 0.20034,0.55581 0.24494,0.869714 0.0474,0.307219 0.0494,0.639269 0.007,0.995809 -0.036,0.35924 -0.13352,0.73615 -0.293,1.1312 -0.18382,0.45531 -0.38294,0.88122 -0.59738,1.27744 -0.21446,0.39621 -0.43749,0.76541 -0.66921,1.10794 -0.22503,0.34523 -0.45441,0.66175 -0.6873,0.94929 -0.22619,0.29025 -0.4436,0.54891 -0.65216,0.77619 -0.50054,0.54548 -1.00376,1.01164 -1.5105,1.39888 l 0.1819,0.33073 c 0.63975,-0.46592 1.25653,-0.99176 1.85105,-1.57717 0.24887,-0.24995 0.5088,-0.5264 0.77928,-0.82992 0.27318,-0.31021 0.53808,-0.63922 0.7953,-0.98702 0.25991,-0.35451 0.50531,-0.73059 0.73588,-1.1281 0.23057,-0.3975 0.43357,-0.8138 0.60926,-1.24902 0.30004,-0.74324 0.46786,-1.41914 0.50333,-2.02778 0.0382,-0.615342 -2e-4,-1.17619 -0.11524,-1.68207 -0.11234,-0.512567 -0.27078,-0.977591 -0.47594,-1.395265 -0.19847,-0.414959 -0.388,-0.795319 -0.56792,-1.140497 -0.16266,-0.322969 -0.28465,-0.618291 -0.37517,-0.892453 l 0.43201,-1.0702179 -0.32143,-0.129709 -0.20102,-0.08113 z"
       inkscape:export-filename="musical_note.png"
       inkscape:export-xdpi="96.2"
       inkscape:export-ydpi="96.2" />
  </g>
</svg>
