<?xml version="1.0" encoding="UTF-8" standalone="no"?>
<!-- Created with Inkscape (http://www.inkscape.org/) -->

<svg
   width="400"
   height="450"
   viewBox="0 0 105.83333 119.0625"
   version="1.1"
   id="svg5363"
   inkscape:version="1.2.2 (b0a8486541, 2022-12-01)"
   sodipodi:docname="present_box.svg"
   xmlns:inkscape="http://www.inkscape.org/namespaces/inkscape"
   xmlns:sodipodi="http://sodipodi.sourceforge.net/DTD/sodipodi-0.dtd"
   xmlns="http://www.w3.org/2000/svg"
   xmlns:svg="http://www.w3.org/2000/svg">
  <sodipodi:namedview
     id="namedview5365"
     pagecolor="#ffffff"
     bordercolor="#666666"
     borderopacity="1.0"
     inkscape:showpageshadow="2"
     inkscape:pageopacity="0.0"
     inkscape:pagecheckerboard="0"
     inkscape:deskcolor="#d1d1d1"
     inkscape:document-units="mm"
     showgrid="true"
     inkscape:zoom="0.73053387"
     inkscape:cx="104.71794"
     inkscape:cy="235.44425"
     inkscape:window-width="1920"
     inkscape:window-height="979"
     inkscape:window-x="0"
     inkscape:window-y="32"
     inkscape:window-maximized="1"
     inkscape:current-layer="layer1">
    <inkscape:grid
       type="xygrid"
       id="grid5484"
       spacingx="13.229166"
       spacingy="13.229166"
       empspacing="4"
       originx="0"
       originy="0" />
  </sodipodi:namedview>
  <defs
     id="defs5360" />
  <g
     inkscape:label="Layer 1"
     inkscape:groupmode="layer"
     id="layer1">
    <path
       style="fill:#d7aa15;fill-opacity:1;stroke:#000000;stroke-width:0.471427px;stroke-linecap:butt;stroke-linejoin:miter;stroke-opacity:1"
       d="M 8.4708987,13.539078 12.669344,31.475655 24.168,38.168191 38.162261,31.030443 42.590912,13.093189 25.790536,12.254953 Z"
       id="path9224"
       sodipodi:nodetypes="ccccccc" />
    <path
       id="rect9280"
       style="font-variation-settings:normal;vector-effect:none;fill:#e3c216;fill-opacity:1;stroke:none;stroke-width:0.471427px;stroke-linecap:butt;stroke-linejoin:miter;stroke-miterlimit:4;stroke-dasharray:none;stroke-dashoffset:0;stroke-opacity:1;-inkscape-stroke:none;stop-color:#000000"
       d="M 42.585032,12.939565 26.112306,6.5340522 8.3013095,13.478177 26.785068,20.330022 Z"
       sodipodi:nodetypes="ccccc" />
    <path
       style="fill:#b99113;fill-opacity:1;stroke:none;stroke-width:0.455163px;stroke-linecap:butt;stroke-linejoin:miter;stroke-opacity:1"
       d="M 24.485833,37.731301 26.520119,20.013116 42.27511,13.278101 37.997286,30.839811 Z"
       id="path10034" />
    <path
       id="path12228"
       style="font-variation-settings:normal;vector-effect:none;fill:none;fill-opacity:1;stroke:#000000;stroke-width:0.471427px;stroke-linecap:butt;stroke-linejoin:miter;stroke-miterlimit:4;stroke-dasharray:none;stroke-dashoffset:0;stroke-opacity:1;-inkscape-stroke:none;stop-color:#000000"
       d="M 42.592943,12.841246 26.112306,6.5340522 8.5695911,13.354397"
       sodipodi:nodetypes="ccc" />
    <path
       id="path16229"
       style="color:#000000;fill:#e7300f;stroke-width:1.78177;-inkscape-stroke:none"
       d="m 20.04544,8.899481 -2.837759,1.105822 17.215386,6.856889 -1.65737,16.646359 L 34.97,32.384306 36.671558,15.504979 Z" />
    <path
       id="path16231"
       style="color:#000000;fill:#e7300f;stroke-width:1.78177;-inkscape-stroke:none"
       d="m 31.681969,8.6996729 -15.894112,7.5704711 0.555218,17.343372 2.11591,1.231971 -0.545098,-17.253142 16.429072,-7.8577469 z" />
    <path
       style="font-variation-settings:normal;fill:#d12b0e;fill-opacity:1;stroke:none;stroke-width:0.0890887;stroke-linecap:butt;stroke-linejoin:miter;stroke-miterlimit:4;stroke-dasharray:none;stroke-dashoffset:0;stroke-opacity:1;stop-color:#000000"
       id="path16415"
       d="m 26.74072,11.21192 c -0.465417,0.181688 -0.944661,0.328916 -1.433935,0.431439 -0.425684,0.08927 -0.665225,0.115459 -1.097109,0.176218 -0.88221,0.09853 -1.770067,0.150025 -2.657604,0.127396 -0.611273,-0.02833 -1.224952,-0.103342 -1.814291,-0.273609 -0.105124,-0.03011 -0.208164,-0.06735 -0.312256,-0.101027 -0.520473,-0.182524 -0.986051,-0.47274 -1.369043,-0.870485 -0.07733,-0.08036 -0.146996,-0.167665 -0.220619,-0.251409 -0.328399,-0.400346 -0.571557,-0.8620572 -0.707115,-1.3623792 -0.02655,-0.097641 -0.04454,-0.1975273 -0.06682,-0.296291 -0.08143,-0.4726154 -0.120983,-0.9633157 -0.0089,-1.4352184 0.0212,-0.089445 0.05417,-0.1756828 0.08125,-0.2635777 0.142542,-0.2901083 0.323392,-0.5665148 0.611701,-0.7302776 0.05862,-0.033497 0.24396,-0.1143899 0.185945,-0.079823 -0.916116,0.5439754 -1.841106,1.072877 -2.761677,1.6093155 0.07751,-0.026014 0.152698,-0.059155 0.232254,-0.077507 0.50148,-0.116528 1.034035,-0.023163 1.53204,0.060937 0.473774,0.088732 0.921694,0.2626334 1.358852,0.4603033 0.484731,0.2521744 0.981917,0.4787268 1.468929,0.7261795 0.558729,0.2930483 1.12519,0.5710405 1.675313,0.8802138 0.367562,0.2050638 0.705849,0.4547798 1.043085,0.7049228 0.348337,0.254847 0.691489,0.517196 1.027638,0.78799 0.33018,0.269511 0.670196,0.526354 0.998256,0.798556 0.19359,0.148421 0.362823,0.323303 0.526033,0.503582 0.146106,0.129892 0.279988,0.270171 0.400436,0.423956 0.09497,0.115102 0.186159,0.232129 0.261136,0.361343 0,0 3.07821,-1.789596 3.07821,-1.789596 v 0 c -0.08999,-0.138088 -0.173729,-0.28243 -0.283968,-0.405657 -0.135593,-0.154658 -0.281449,-0.299873 -0.415669,-0.455867 -0.08161,-0.07305 -0.167309,-0.135237 -0.253636,-0.20216 -0.125259,-0.09728 -0.241199,-0.207506 -0.378413,-0.289075 C 27.088469,10.134285 26.723882,9.905488 26.407136,9.6117983 26.064448,9.3466704 25.742072,9.0575777 25.394287,8.7996126 25.030004,8.5366585 24.669979,8.2642253 24.251334,8.0910192 23.670155,7.832858 23.100807,7.5506608 22.543771,7.2436791 22.077748,6.9792105 21.622291,6.695962 21.144847,6.4518234 20.979499,6.3691491 20.888023,6.3194376 20.716082,6.2501445 20.377456,6.1134825 20.019034,6.0283315 19.660114,5.9661476 19.071897,5.861023 18.475324,5.746847 17.875418,5.7724867 c -1.053259,0.5868805 -2.113308,1.161734 -3.159761,1.7606949 -0.08802,0.050424 -0.228352,0.2179287 -0.284353,0.2967187 -0.151807,0.213599 -0.252958,0.4534613 -0.321272,0.7056178 -0.02388,0.1022738 -0.05399,0.2031044 -0.07145,0.3065363 -0.08677,0.5096584 0.0036,1.0272279 0.09461,1.5289756 0.06557,0.265128 0.08463,0.380106 0.184824,0.635256 0.164636,0.419037 0.395839,0.813914 0.697083,1.148817 0.474415,0.534693 0.985695,1.039505 1.679571,1.272952 0.112608,0.0367 0.223737,0.07804 0.337557,0.110827 0.614141,0.176573 1.255027,0.268246 1.891245,0.308835 0.371179,0.0089 0.462263,0.01604 0.837736,0 0.661609,-0.02922 1.319885,-0.112965 1.97768,-0.184895 0.487564,-0.05167 0.977801,-0.08998 1.463263,-0.159647 1.107123,-0.159112 -0.255078,0.02352 0.573018,-0.09247 0.04276,-0.0053 0.08588,-0.01069 0.128644,-0.01425 0,0 2.837082,-2.182994 2.837082,-2.182994 z" />
    <path
       style="font-variation-settings:normal;fill:#d12b0e;fill-opacity:1;stroke:none;stroke-width:0.0890887;stroke-linecap:butt;stroke-linejoin:miter;stroke-miterlimit:4;stroke-dasharray:none;stroke-dashoffset:0;stroke-opacity:1;stop-color:#000000"
       id="path16417"
       d="m 26.531611,11.361482 c 0.465417,0.181688 0.944661,0.328916 1.433936,0.431439 0.425683,0.08927 0.665225,0.115459 1.097109,0.176218 0.882209,0.09853 1.770067,0.150025 2.657604,0.127396 0.611273,-0.02833 1.224951,-0.103342 1.81429,-0.273609 0.105125,-0.03011 0.208165,-0.06735 0.312256,-0.101026 0.520474,-0.182525 0.986051,-0.472741 1.369043,-0.870486 0.07733,-0.08036 0.146997,-0.167665 0.220619,-0.251408 0.328399,-0.400347 0.571558,-0.8620582 0.707115,-1.3623801 0.02655,-0.097641 0.04454,-0.1975274 0.06682,-0.2962911 0.08143,-0.4726153 0.120983,-0.9633157 0.0089,-1.4352184 -0.0212,-0.089445 -0.05417,-0.1756828 -0.08125,-0.2635777 -0.142541,-0.2901083 -0.323391,-0.5665148 -0.6117,-0.7302776 -0.05862,-0.033497 -0.24396,-0.1143898 -0.185946,-0.079823 0.916117,0.5439754 1.841106,1.0728769 2.761677,1.6093154 -0.07751,-0.026014 -0.152698,-0.059155 -0.232254,-0.077507 -0.50148,-0.1165279 -1.034034,-0.023163 -1.53204,0.060937 -0.473773,0.088732 -0.921693,0.2626334 -1.358851,0.4603033 -0.484732,0.2521744 -0.981918,0.4787269 -1.46893,0.7261796 -0.558728,0.2930482 -1.12519,0.5710405 -1.675312,0.8802136 -0.367562,0.205064 -0.70585,0.45478 -1.043086,0.704923 -0.348337,0.254847 -0.691488,0.517196 -1.027638,0.78799 -0.33018,0.269511 -0.670196,0.526354 -0.998256,0.798556 -0.19359,0.148421 -0.362822,0.323303 -0.526033,0.503582 -0.146105,0.129892 -0.279988,0.270171 -0.400436,0.423956 -0.09497,0.115102 -0.186159,0.232129 -0.261136,0.361343 0,0 -3.078209,-1.789596 -3.078209,-1.789596 v 0 c 0.08999,-0.138088 0.173729,-0.282429 0.283967,-0.405657 0.135593,-0.154658 0.281449,-0.299872 0.41567,-0.455867 0.0816,-0.07305 0.167308,-0.135236 0.253635,-0.20216 0.125259,-0.09728 0.241199,-0.207505 0.378413,-0.289075 0.352274,-0.246027 0.716861,-0.474825 1.033607,-0.7685143 0.342688,-0.2651278 0.665064,-0.5542205 1.012849,-0.8121857 0.364283,-0.2629541 0.724308,-0.5353872 1.142954,-0.7085934 0.581179,-0.2581611 1.150526,-0.5403584 1.707562,-0.8473401 0.466023,-0.2644686 0.92148,-0.5477171 1.398924,-0.7918557 0.165348,-0.082674 0.256825,-0.1323857 0.428766,-0.2016789 0.338626,-0.136662 0.697047,-0.2218129 1.055968,-0.2839968 0.588217,-0.1051246 1.18479,-0.2193007 1.784695,-0.193661 1.05326,0.5868805 2.113308,1.161734 3.159761,1.7606949 0.08802,0.050424 0.228352,0.2179287 0.284353,0.2967187 0.151807,0.213599 0.252959,0.4534613 0.321272,0.7056179 0.02388,0.1022738 0.05399,0.2031043 0.07145,0.3065363 0.08677,0.5096584 -0.0036,1.0272281 -0.09461,1.5289751 -0.06557,0.265128 -0.08463,0.380106 -0.184824,0.635256 -0.164635,0.419038 -0.395838,0.813915 -0.697083,1.148817 -0.474415,0.534693 -0.985694,1.039505 -1.67957,1.272953 -0.112608,0.0367 -0.223738,0.07804 -0.337557,0.110826 -0.614142,0.176574 -1.255028,0.268246 -1.891246,0.308835 -0.371179,0.0089 -0.462263,0.01604 -0.837736,0 -0.661608,-0.02922 -1.319884,-0.112965 -1.977679,-0.184895 -0.487565,-0.05167 -0.977802,-0.08998 -1.463264,-0.159647 -1.107122,-0.159112 0.255079,0.02352 -0.573018,-0.09247 -0.04276,-0.0053 -0.08588,-0.01069 -0.128644,-0.01425 0,0 -2.837082,-2.182994 -2.837082,-2.182994 z" />
    <path
       style="fill:#d7aa15;fill-opacity:1;stroke:#000000;stroke-width:0.471427px;stroke-linecap:butt;stroke-linejoin:miter;stroke-opacity:1"
       d="M 61.387539,13.539078 65.585984,31.475655 77.08464,38.168191 91.078901,31.030443 95.507552,13.093189 78.707176,12.254953 Z"
       id="path5581"
       sodipodi:nodetypes="ccccccc" />
    <path
       id="path5583"
       style="font-variation-settings:normal;vector-effect:none;fill:#000000;fill-opacity:1;stroke:none;stroke-width:0.471427px;stroke-linecap:butt;stroke-linejoin:miter;stroke-miterlimit:4;stroke-dasharray:none;stroke-dashoffset:0;stroke-opacity:1;-inkscape-stroke:none;stop-color:#000000"
       d="M 95.501672,12.939565 79.028946,6.5340522 61.21795,13.478177 79.701708,20.330022 Z"
       sodipodi:nodetypes="ccccc" />
    <path
       style="fill:#b99113;fill-opacity:1;stroke:none;stroke-width:0.455163px;stroke-linecap:butt;stroke-linejoin:miter;stroke-opacity:1"
       d="M 77.402473,37.731301 79.436759,20.013116 95.19175,13.278101 90.913926,30.839811 Z"
       id="path5585" />
    <path
       id="path5587"
       style="font-variation-settings:normal;vector-effect:none;fill:none;fill-opacity:1;stroke:#000000;stroke-width:0.471427px;stroke-linecap:butt;stroke-linejoin:miter;stroke-miterlimit:4;stroke-dasharray:none;stroke-dashoffset:0;stroke-opacity:1;-inkscape-stroke:none;stop-color:#000000"
       d="M 95.509583,12.841246 79.028946,6.5340522 61.486231,13.354397"
       sodipodi:nodetypes="ccc" />
    <path
       id="path5589"
       style="color:#000000;fill:#e7300f;stroke-width:1.78177;-inkscape-stroke:none"
       d="m 87.339707,16.862192 -1.65737,16.646359 2.204303,-1.124245 1.701558,-16.879327"
       sodipodi:nodetypes="cccc" />
    <path
       id="path5591"
       style="color:#000000;fill:#e7300f;stroke-width:1.78177;-inkscape-stroke:none"
       d="m 68.704497,16.270144 0.555218,17.343372 2.11591,1.231971 -0.545098,-17.253142"
       sodipodi:nodetypes="cccc" />
    <path
       style="font-variation-settings:normal;fill:#d12b0e;fill-opacity:1;stroke:none;stroke-width:0.0737096;stroke-linecap:butt;stroke-linejoin:miter;stroke-miterlimit:4;stroke-dasharray:none;stroke-dashoffset:0;stroke-opacity:1;stop-color:#000000"
       id="path5593"
       d="m 68.63046,5.4519907 c -0.35908,0.2047946 -0.73363,0.3830474 -1.121775,0.5259153 -0.33769,0.1243592 -0.530612,0.1746562 -0.876812,0.276424 -0.710266,0.18694 -1.43082,0.3360606 -2.160044,0.4244672 -0.503773,0.050457 -1.01514,0.062992 -1.51806,-0.00538 -0.08968,-0.011988 -0.178507,-0.03005 -0.26777,-0.045075 C 62.237974,6.5416449 61.821908,6.3601797 61.460488,6.0807463 61.387507,6.0242804 61.319961,5.9612165 61.24961,5.9015347 60.932564,5.6133958 60.677901,5.2647542 60.506659,4.8715467 60.473165,4.7948219 60.446399,4.7152298 60.416266,4.6370671 60.292671,4.260017 60.201175,3.8631174 60.236065,3.4633357 c 0.0066,-0.075768 0.02318,-0.1503321 0.03475,-0.2255408 0.08173,-0.254643 0.196461,-0.5026857 0.412727,-0.6714702 0.04395,-0.034478 0.185914,-0.1230248 0.142588,-0.087743 -0.684352,0.5556469 -1.377785,1.1000239 -2.066692,1.6500374 0.06031,-0.030632 0.117864,-0.066819 0.180777,-0.091423 0.39645,-0.1558024 0.843623,-0.14354 1.2614,-0.1346995 0.398499,0.015553 0.786098,0.1039348 1.16775,0.2130697 0.427161,0.1480181 0.86143,0.2735626 1.289889,0.4174409 0.492655,0.1725606 0.989827,0.3318647 1.477381,0.518661 0.325576,0.1235726 0.632568,0.2872215 0.938751,0.4513476 0.315836,0.1666382 0.628332,0.3400417 0.936114,0.5212025 0.302741,0.1808287 0.612007,0.3501041 0.913336,0.5333914 0.176346,0.098167 0.335942,0.2209282 0.491259,0.3488329 0.135245,0.088721 0.261734,0.187416 0.378856,0.2987864 0.09161,0.082776 0.180347,0.1675824 0.257288,0.264317 0,0 2.304071,-1.8357428 2.304071,-1.8357428 v 0 C 70.266014,5.5316127 70.180079,5.4235499 70.074995,5.3359637 69.945372,5.2257037 69.808486,5.12441 69.679826,5.0128925 69.604224,4.9629302 69.52658,4.9223502 69.447853,4.877971 69.333602,4.8134336 69.225419,4.7371762 69.103274,4.686939 68.785277,4.5279933 68.459278,4.3846363 68.164621,4.1823966 67.85217,4.0066625 67.553458,3.8088644 67.237698,3.639607 66.907831,3.4682534 66.580309,3.2886275 66.216757,3.197287 65.709927,3.0559884 65.209887,2.8935906 64.716937,2.7094204 64.303609,2.5490852 63.896667,2.3721039 63.47644,2.2297856 63.331133,2.1820336 63.250266,2.1523634 63.101175,2.1163585 c -0.293649,-0.071068 -0.597296,-0.097586 -0.898583,-0.105244 -0.494153,-0.015183 -0.996236,-0.036766 -1.484203,0.056498 -0.791442,0.6072903 -1.589892,1.2055529 -2.374308,1.821911 -0.06597,0.051876 -0.160665,0.205895 -0.197008,0.2771393 -0.09853,0.193133 -0.152427,0.4016584 -0.177966,0.6162932 -0.0072,0.086594 -0.01972,0.1727569 -0.02155,0.2595247 -0.0096,0.4276381 0.126708,0.8404079 0.261654,1.2401509 0.08562,0.2091184 0.11507,0.3009418 0.227824,0.4977245 0.18525,0.3231688 0.422076,0.6185417 0.70901,0.8563834 0.452757,0.3805148 0.932084,0.7321347 1.528185,0.8396255 0.0966,0.016479 0.192543,0.036925 0.28966,0.05005 0.523982,0.070542 1.059625,0.068369 1.585295,0.024941 0.304902,-0.037434 0.380319,-0.042563 0.685733,-0.1009296 0.538042,-0.1036289 1.066787,-0.2514871 1.596561,-0.3896176 0.392873,-0.1010362 0.789542,-0.1914584 1.178526,-0.306973 0.88707,-0.2636276 -0.205961,0.049984 0.457906,-0.144729 0.03436,-0.00949 0.06901,-0.019099 0.103583,-0.027165 0,0 2.059299,-2.1287086 2.059299,-2.1287086 z" />
    <path
       id="rect5712"
       style="opacity:1;vector-effect:none;fill:#c5a813;fill-opacity:1;stroke:#000000;stroke-width:0.481909px;stop-color:#000000;stop-opacity:1"
       transform="matrix(0.91661549,-0.39977,0.11658229,0.99318104,0,0)"
       d="m 61.1234,31.789985 19.747698,1.271188 0.352134,6.211288 -19.037378,-0.795653 z"
       sodipodi:nodetypes="ccccc" />
    <path
       id="path6391"
       style="opacity:1;vector-effect:none;fill:#c5a813;fill-opacity:1;stroke:#000000;stroke-width:0.471427px;stop-color:#000000;stop-opacity:1"
       d="M 97.84895,6.7994035 80.128874,0.69655286 79.081976,6.7247137 96.095523,13.015892 Z"
       sodipodi:nodetypes="ccccc" />
    <path
       id="path6389"
       style="opacity:1;vector-effect:none;fill:#e3c216;stroke:#000000;stroke-width:0.471427px;stop-color:#000000;stop-opacity:1"
       d="M 80.112529,11.729358 97.30344,6.1556743 96.233671,13.242169 78.690956,20.062514 Z"
       sodipodi:nodetypes="ccccc" />
    <path
       id="path6400"
       style="color:#000000;fill:#e7300f;stroke-width:1.77106;-inkscape-stroke:none"
       inkscape:transform-center-x="0.0044218066"
       inkscape:transform-center-y="0.10546306"
       d="m 91.487922,8.2372603 -2.31097,0.7403241 -1.694987,7.4823806 2.323889,-0.839885 z" />
    <path
       style="font-variation-settings:normal;fill:#d12b0e;fill-opacity:1;stroke:none;stroke-width:0.0521517;stroke-linecap:butt;stroke-linejoin:miter;stroke-miterlimit:4;stroke-dasharray:none;stroke-dashoffset:0;stroke-opacity:1;stop-color:#000000"
       id="path5595"
       d="m 89.601971,11.687524 c 0.09446,0.276803 0.209547,0.54678 0.348425,0.804364 0.120795,0.224132 0.199526,0.341178 0.335417,0.55732 0.289028,0.431852 0.601229,0.848473 0.946468,1.236962 0.243478,0.262752 0.508747,0.508953 0.807437,0.7083 0.05317,0.03566 0.108728,0.06769 0.163095,0.101541 0.278171,0.16391 0.583791,0.262605 0.906329,0.283751 0.06513,0.0042 0.13051,0.0025 0.195769,0.0037 0.303086,-0.0043 0.601442,-0.06981 0.876441,-0.198083 0.05374,-0.02497 0.105165,-0.05467 0.157769,-0.08199 0.242152,-0.142037 0.476613,-0.30961 0.645434,-0.537884 0.03202,-0.04325 0.05813,-0.09058 0.08725,-0.135846 0.07595,-0.173308 0.13132,-0.358575 0.09572,-0.549378 -0.0071,-0.03886 -0.04092,-0.152325 -0.03448,-0.113323 0.102567,0.615214 0.215225,1.228705 0.322843,1.843063 -0.01762,-0.04449 -0.0312,-0.09065 -0.05304,-0.133165 -0.137222,-0.268332 -0.380065,-0.471311 -0.605727,-0.662338 -0.218579,-0.178434 -0.465497,-0.313146 -0.718989,-0.43407 -0.295845,-0.121605 -0.584922,-0.258478 -0.879501,-0.382904 -0.342058,-0.139294 -0.6803,-0.287732 -1.026321,-0.417087 -0.230518,-0.087 -0.469958,-0.144041 -0.709191,-0.200452 -0.24553,-0.0596 -0.492456,-0.11405 -0.740518,-0.162177 -0.245233,-0.04594 -0.488513,-0.101067 -0.734149,-0.145044 -0.139491,-0.03056 -0.281622,-0.04023 -0.423893,-0.04517 -0.113274,-0.01631 -0.226578,-0.02324 -0.340851,-0.01905 -0.08735,9.95e-4 -0.174131,0.0044 -0.260244,0.01962 0,0 -0.361708,-2.05273 -0.361708,-2.05273 v 0 c 0.09575,-0.01188 0.19194,-0.02892 0.288688,-0.02614 0.120382,0.0023 0.240415,0.01268 0.360878,0.01382 0.06349,0.0089 0.123669,0.02378 0.186202,0.03713 0.09081,0.0193 0.183898,0.02955 0.272197,0.06013 0.24307,0.06469 0.483082,0.141398 0.734059,0.172201 0.247945,0.05314 0.498992,0.08819 0.745707,0.146368 0.255177,0.06367 0.512986,0.121862 0.748541,0.24374 0.334928,0.16251 0.676142,0.310651 1.023793,0.443927 0.29427,0.108614 0.592948,0.20541 0.882436,0.32681 0.09942,0.04275 0.156194,0.0649 0.252116,0.115655 0.188993,0.09988 0.362415,0.228067 0.525757,0.365148 0.269121,0.223442 0.545455,0.447203 0.760498,0.72525 0.135155,0.692762 0.278248,1.384016 0.40543,2.078298 0.01065,0.05841 -0.01124,0.184436 -0.02535,0.239237 -0.03823,0.148562 -0.107343,0.284378 -0.19435,0.410145 -0.0367,0.04931 -0.07047,0.100845 -0.110165,0.147683 -0.195221,0.231266 -0.461036,0.386071 -0.719696,0.534992 -0.143374,0.07076 -0.201984,0.105675 -0.353963,0.157182 -0.249616,0.08457 -0.513557,0.130242 -0.777123,0.121932 -0.418318,-0.01033 -0.83719,-0.04845 -1.203617,-0.270701 -0.05896,-0.03651 -0.11941,-0.07062 -0.177053,-0.109154 -0.310876,-0.20806 -0.593873,-0.460144 -0.852253,-0.729427 -0.144132,-0.162684 -0.181716,-0.200732 -0.316312,-0.374754 -0.236739,-0.306998 -0.447828,-0.633094 -0.664021,-0.954513 -0.160981,-0.237618 -0.328947,-0.471387 -0.481082,-0.71486 -0.34685,-0.555341 0.08579,0.122988 -0.174995,-0.29125 -0.01377,-0.02113 -0.02764,-0.04245 -0.0422,-0.06293 0,0 -0.09468,-2.093403 -0.09468,-2.093403 z" />
    <path
       id="path6393"
       style="opacity:1;vector-effect:none;fill:#e3c216;stroke:#000000;stroke-width:0.471427px;stop-color:#000000;stop-opacity:1"
       d="M 78.000091,12.419766 60.280015,6.3169152 61.87895,13.932576 78.892497,20.223754 Z"
       sodipodi:nodetypes="ccccc" />
    <path
       id="path6395"
       style="color:#000000;fill:#e7300f;stroke-width:1.74971;-inkscape-stroke:none"
       d="m 67.446337,9.06963 1.207678,7.210433 2.256193,0.917437 -1.23455,-7.3873418 z" />
    <path
       style="fill:#d7aa15;fill-opacity:1;stroke:#000000;stroke-width:0.471427px;stroke-linecap:butt;stroke-linejoin:miter;stroke-opacity:1"
       d="M 8.4708987,53.226669 12.669344,71.163246 24.168,77.855782 38.162261,70.718034 42.590912,52.78078 25.790536,51.942544 Z"
       id="path6658"
       sodipodi:nodetypes="ccccccc" />
    <path
       id="path6660"
       style="font-variation-settings:normal;vector-effect:none;fill:#e3c216;fill-opacity:1;stroke:none;stroke-width:0.471427px;stroke-linecap:butt;stroke-linejoin:miter;stroke-miterlimit:4;stroke-dasharray:none;stroke-dashoffset:0;stroke-opacity:1;-inkscape-stroke:none;stop-color:#000000"
       d="M 42.585032,52.627156 26.112306,46.221644 8.3013095,53.165768 26.785068,60.017613 Z"
       sodipodi:nodetypes="ccccc" />
    <path
       style="fill:#b99113;fill-opacity:1;stroke:none;stroke-width:0.455163px;stroke-linecap:butt;stroke-linejoin:miter;stroke-opacity:1"
       d="M 24.485833,77.418892 26.520119,59.700707 42.27511,52.965692 37.997286,70.527402 Z"
       id="path6662" />
    <path
       id="path6664"
       style="font-variation-settings:normal;vector-effect:none;fill:none;fill-opacity:1;stroke:#000000;stroke-width:0.471427px;stroke-linecap:butt;stroke-linejoin:miter;stroke-miterlimit:4;stroke-dasharray:none;stroke-dashoffset:0;stroke-opacity:1;-inkscape-stroke:none;stop-color:#000000"
       d="M 42.592943,52.528837 26.112306,46.221644 8.5695911,53.041988"
       sodipodi:nodetypes="ccc" />
    <path
       id="path6666"
       style="color:#000000;fill:#e7300f;stroke-width:1.78177;-inkscape-stroke:none"
       d="m 20.04544,48.587072 -2.837759,1.105822 17.215386,6.856889 -1.65737,16.646359 L 34.97,72.071897 36.671558,55.19257 Z" />
    <path
       id="path6668"
       style="color:#000000;fill:#e7300f;stroke-width:1.78177;-inkscape-stroke:none"
       d="m 31.681969,48.387264 -15.894112,7.570471 0.555218,17.343372 2.11591,1.231971 -0.545098,-17.253142 16.429072,-7.857746 z" />
    <path
       style="font-variation-settings:normal;fill:#d12b0e;fill-opacity:1;stroke:none;stroke-width:0.0890887;stroke-linecap:butt;stroke-linejoin:miter;stroke-miterlimit:4;stroke-dasharray:none;stroke-dashoffset:0;stroke-opacity:1;stop-color:#000000"
       id="path6670"
       d="m 26.74072,50.899511 c -0.465417,0.181688 -0.944661,0.328916 -1.433935,0.431439 -0.425684,0.08927 -0.665225,0.115459 -1.097109,0.176218 -0.88221,0.09853 -1.770067,0.150025 -2.657604,0.127396 -0.611273,-0.02833 -1.224952,-0.103342 -1.814291,-0.273609 -0.105124,-0.03011 -0.208164,-0.06735 -0.312256,-0.101027 -0.520473,-0.182524 -0.986051,-0.47274 -1.369043,-0.870485 -0.07733,-0.08036 -0.146996,-0.167665 -0.220619,-0.251409 -0.328399,-0.400346 -0.571557,-0.862057 -0.707115,-1.362379 -0.02655,-0.09764 -0.04454,-0.197527 -0.06682,-0.296291 -0.08143,-0.472615 -0.120983,-0.963315 -0.0089,-1.435218 0.0212,-0.08944 0.05417,-0.175683 0.08125,-0.263578 0.142542,-0.290108 0.323392,-0.566515 0.611701,-0.730277 0.05862,-0.0335 0.24396,-0.11439 0.185945,-0.07982 -0.916116,0.543975 -1.841106,1.072877 -2.761677,1.609315 0.07751,-0.02601 0.152698,-0.05915 0.232254,-0.07751 0.50148,-0.116528 1.034035,-0.02316 1.53204,0.06094 0.473774,0.08873 0.921694,0.262633 1.358852,0.460303 0.484731,0.252175 0.981917,0.478727 1.468929,0.72618 0.558729,0.293048 1.12519,0.57104 1.675313,0.880214 0.367562,0.205063 0.705849,0.454779 1.043085,0.704922 0.348337,0.254847 0.691489,0.517196 1.027638,0.78799 0.33018,0.269511 0.670196,0.526354 0.998256,0.798556 0.19359,0.148421 0.362823,0.323303 0.526033,0.503582 0.146106,0.129892 0.279988,0.270171 0.400436,0.423956 0.09497,0.115102 0.186159,0.232129 0.261136,0.361343 0,0 3.07821,-1.789596 3.07821,-1.789596 v 0 c -0.08999,-0.138088 -0.173729,-0.28243 -0.283968,-0.405657 -0.135593,-0.154658 -0.281449,-0.299873 -0.415669,-0.455867 -0.08161,-0.07305 -0.167309,-0.135237 -0.253636,-0.20216 -0.125259,-0.09728 -0.241199,-0.207506 -0.378413,-0.289075 -0.352274,-0.246028 -0.716861,-0.474825 -1.033607,-0.768514 -0.342688,-0.265128 -0.665064,-0.554221 -1.012849,-0.812186 -0.364283,-0.262954 -0.724308,-0.535387 -1.142953,-0.708593 -0.581179,-0.258162 -1.150527,-0.540359 -1.707563,-0.84734 -0.466023,-0.264469 -0.92148,-0.547718 -1.398924,-0.791856 -0.165348,-0.08267 -0.256824,-0.132386 -0.428765,-0.201679 -0.338626,-0.136662 -0.697048,-0.221813 -1.055968,-0.283997 -0.588217,-0.105125 -1.18479,-0.219301 -1.784696,-0.193661 -1.053259,0.586881 -2.113308,1.161734 -3.159761,1.760695 -0.08802,0.05042 -0.228352,0.217929 -0.284353,0.296719 -0.151807,0.213599 -0.252958,0.453461 -0.321272,0.705618 -0.02388,0.102273 -0.05399,0.203104 -0.07145,0.306536 -0.08677,0.509658 0.0036,1.027228 0.09461,1.528975 0.06557,0.265128 0.08463,0.380106 0.184824,0.635256 0.164636,0.419037 0.395839,0.813914 0.697083,1.148817 0.474415,0.534693 0.985695,1.039505 1.679571,1.272952 0.112608,0.0367 0.223737,0.07804 0.337557,0.110827 0.614141,0.176573 1.255027,0.268246 1.891245,0.308835 0.371179,0.0089 0.462263,0.01604 0.837736,0 0.661609,-0.02922 1.319885,-0.112965 1.97768,-0.184895 0.487564,-0.05167 0.977801,-0.08998 1.463263,-0.159647 1.107123,-0.159112 -0.255078,0.02352 0.573018,-0.09247 0.04276,-0.0053 0.08588,-0.01069 0.128644,-0.01425 0,0 2.837082,-2.182994 2.837082,-2.182994 z" />
    <path
       style="font-variation-settings:normal;fill:#d12b0e;fill-opacity:1;stroke:none;stroke-width:0.0890887;stroke-linecap:butt;stroke-linejoin:miter;stroke-miterlimit:4;stroke-dasharray:none;stroke-dashoffset:0;stroke-opacity:1;stop-color:#000000"
       id="path6672"
       d="m 26.531611,51.049073 c 0.465417,0.181688 0.944661,0.328916 1.433936,0.431439 0.425683,0.08927 0.665225,0.115459 1.097109,0.176218 0.882209,0.09853 1.770067,0.150025 2.657604,0.127396 0.611273,-0.02833 1.224951,-0.103342 1.81429,-0.273609 0.105125,-0.03011 0.208165,-0.06735 0.312256,-0.101026 0.520474,-0.182525 0.986051,-0.472741 1.369043,-0.870486 0.07733,-0.08036 0.146997,-0.167665 0.220619,-0.251408 0.328399,-0.400347 0.571558,-0.862058 0.707115,-1.36238 0.02655,-0.09764 0.04454,-0.197527 0.06682,-0.296291 0.08143,-0.472615 0.120983,-0.963315 0.0089,-1.435218 -0.0212,-0.08944 -0.05417,-0.175683 -0.08125,-0.263578 -0.142541,-0.290108 -0.323391,-0.566515 -0.6117,-0.730277 -0.05862,-0.0335 -0.24396,-0.11439 -0.185946,-0.07982 0.916117,0.543975 1.841106,1.072876 2.761677,1.609315 -0.07751,-0.02601 -0.152698,-0.05916 -0.232254,-0.07751 -0.50148,-0.116528 -1.034034,-0.02316 -1.53204,0.06094 -0.473773,0.08873 -0.921693,0.262633 -1.358851,0.460303 -0.484732,0.252175 -0.981918,0.478727 -1.46893,0.72618 -0.558728,0.293048 -1.12519,0.57104 -1.675312,0.880213 -0.367562,0.205064 -0.70585,0.45478 -1.043086,0.704923 -0.348337,0.254847 -0.691488,0.517196 -1.027638,0.78799 -0.33018,0.269511 -0.670196,0.526354 -0.998256,0.798556 -0.19359,0.148421 -0.362822,0.323303 -0.526033,0.503582 -0.146105,0.129892 -0.279988,0.270171 -0.400436,0.423956 -0.09497,0.115102 -0.186159,0.232129 -0.261136,0.361343 0,0 -3.078209,-1.789596 -3.078209,-1.789596 v 0 c 0.08999,-0.138088 0.173729,-0.282429 0.283967,-0.405657 0.135593,-0.154658 0.281449,-0.299872 0.41567,-0.455867 0.0816,-0.07305 0.167308,-0.135236 0.253635,-0.20216 0.125259,-0.09728 0.241199,-0.207505 0.378413,-0.289075 0.352274,-0.246027 0.716861,-0.474825 1.033607,-0.768514 0.342688,-0.265128 0.665064,-0.55422 1.012849,-0.812186 0.364283,-0.262954 0.724308,-0.535387 1.142954,-0.708593 0.581179,-0.258161 1.150526,-0.540358 1.707562,-0.84734 0.466023,-0.264469 0.92148,-0.547717 1.398924,-0.791856 0.165348,-0.08267 0.256825,-0.132385 0.428766,-0.201679 0.338626,-0.136662 0.697047,-0.221813 1.055968,-0.283996 0.588217,-0.105125 1.18479,-0.219301 1.784695,-0.193661 1.05326,0.58688 2.113308,1.161734 3.159761,1.760694 0.08802,0.05042 0.228352,0.217929 0.284353,0.296719 0.151807,0.213599 0.252959,0.453461 0.321272,0.705618 0.02388,0.102274 0.05399,0.203104 0.07145,0.306536 0.08677,0.509659 -0.0036,1.027228 -0.09461,1.528975 -0.06557,0.265128 -0.08463,0.380106 -0.184824,0.635256 -0.164635,0.419038 -0.395838,0.813915 -0.697083,1.148817 -0.474415,0.534693 -0.985694,1.039505 -1.67957,1.272953 -0.112608,0.0367 -0.223738,0.07804 -0.337557,0.110826 -0.614142,0.176574 -1.255028,0.268246 -1.891246,0.308835 -0.371179,0.0089 -0.462263,0.01604 -0.837736,0 -0.661608,-0.02922 -1.319884,-0.112965 -1.977679,-0.184895 -0.487565,-0.05167 -0.977802,-0.08998 -1.463264,-0.159647 -1.107122,-0.159112 0.255079,0.02352 -0.573018,-0.09247 -0.04276,-0.0053 -0.08588,-0.01069 -0.128644,-0.01425 0,0 -2.837082,-2.182994 -2.837082,-2.182994 z" />
    <path
       style="fill:#d7aa15;fill-opacity:1;stroke:#000000;stroke-width:0.471427px;stroke-linecap:butt;stroke-linejoin:miter;stroke-opacity:1"
       d="M 61.387539,53.226669 65.585984,71.163246 77.08464,77.855782 91.078901,70.718034 95.507552,52.78078 78.93443,59.429611 Z"
       id="path6674"
       sodipodi:nodetypes="ccccccc" />
    <path
       style="fill:#b99113;fill-opacity:1;stroke:none;stroke-width:0.455163px;stroke-linecap:butt;stroke-linejoin:miter;stroke-opacity:1"
       d="M 77.402473,77.418892 79.436759,59.700707 95.19175,52.965692 90.913926,70.527402 Z"
       id="path6678" />
    <path
       id="path6682"
       style="color:#000000;fill:#e7300f;stroke-width:1.78177;-inkscape-stroke:none"
       d="M 87.339707,56.549783 85.682337,73.196142 87.88664,72.071897 89.588198,55.19257"
       sodipodi:nodetypes="cccc" />
    <path
       id="path6684"
       style="color:#000000;fill:#e7300f;stroke-width:1.78177;-inkscape-stroke:none"
       d="m 68.704497,55.957735 0.555218,17.343372 2.11591,1.231971 -0.545098,-17.253142"
       sodipodi:nodetypes="cccc" />
    <path
       id="path6692"
       style="opacity:1;vector-effect:none;fill:#e3c216;stroke:#000000;stroke-width:0.471427px;stop-color:#000000;stop-opacity:1"
       d="M 80.112529,51.416949 97.30344,45.843266 96.233671,52.92976 78.690956,59.750105 Z"
       sodipodi:nodetypes="ccccc" />
    <path
       id="path6694"
       style="color:#000000;fill:#e7300f;stroke-width:1.77106;-inkscape-stroke:none"
       inkscape:transform-center-x="0.0044218066"
       inkscape:transform-center-y="0.10546306"
       d="m 91.487922,47.924852 -2.31097,0.740324 -1.694987,7.48238 2.323889,-0.839885 z" />
    <path
       style="font-variation-settings:normal;fill:#d12b0e;fill-opacity:1;stroke:none;stroke-width:0.0521517;stroke-linecap:butt;stroke-linejoin:miter;stroke-miterlimit:4;stroke-dasharray:none;stroke-dashoffset:0;stroke-opacity:1;stop-color:#000000"
       id="path6696"
       d="m 89.601971,51.375115 c 0.09446,0.276803 0.209547,0.54678 0.348425,0.804364 0.120795,0.224132 0.199526,0.341178 0.335417,0.55732 0.289028,0.431852 0.601229,0.848473 0.946468,1.236962 0.243478,0.262752 0.508747,0.508953 0.807437,0.7083 0.05317,0.03566 0.108728,0.06769 0.163095,0.101541 0.278171,0.16391 0.583791,0.262605 0.906329,0.283751 0.06513,0.0042 0.13051,0.0025 0.195769,0.0037 0.303086,-0.0043 0.601442,-0.06981 0.876441,-0.198083 0.05374,-0.02497 0.105165,-0.05467 0.157769,-0.08199 0.242152,-0.142037 0.476613,-0.30961 0.645434,-0.537884 0.03202,-0.04325 0.05813,-0.09058 0.08725,-0.135846 0.07595,-0.173308 0.13132,-0.358575 0.09572,-0.549378 -0.0071,-0.03886 -0.04092,-0.152325 -0.03448,-0.113323 0.102567,0.615214 0.215225,1.228705 0.322843,1.843063 -0.01762,-0.04449 -0.0312,-0.09065 -0.05304,-0.133165 -0.137222,-0.268332 -0.380065,-0.471311 -0.605727,-0.662338 -0.218579,-0.178434 -0.465497,-0.313146 -0.718989,-0.43407 -0.295845,-0.121605 -0.584922,-0.258478 -0.879501,-0.382904 -0.342058,-0.139294 -0.6803,-0.287732 -1.026321,-0.417087 -0.230518,-0.087 -0.469958,-0.144041 -0.709191,-0.200452 -0.24553,-0.0596 -0.492456,-0.11405 -0.740518,-0.162177 -0.245233,-0.04594 -0.488513,-0.101067 -0.734149,-0.145044 -0.139491,-0.03056 -0.281622,-0.04023 -0.423893,-0.04517 -0.113274,-0.01631 -0.226578,-0.02324 -0.340851,-0.01905 -0.08735,9.95e-4 -0.174131,0.0044 -0.260244,0.01962 0,0 -0.361708,-2.05273 -0.361708,-2.05273 v 0 c 0.09575,-0.01188 0.19194,-0.02892 0.288688,-0.02614 0.120382,0.0023 0.240415,0.01268 0.360878,0.01382 0.06349,0.0089 0.123669,0.02378 0.186202,0.03713 0.09081,0.0193 0.183898,0.02955 0.272197,0.06013 0.24307,0.06469 0.483082,0.141398 0.734059,0.172201 0.247945,0.05314 0.498992,0.08819 0.745707,0.146368 0.255177,0.06367 0.512986,0.121862 0.748541,0.24374 0.334928,0.16251 0.676142,0.310651 1.023793,0.443927 0.29427,0.108614 0.592948,0.20541 0.882436,0.32681 0.09942,0.04275 0.156194,0.0649 0.252116,0.115655 0.188993,0.09988 0.362415,0.228067 0.525757,0.365148 0.269121,0.223442 0.545455,0.447203 0.760498,0.72525 0.135155,0.692762 0.278248,1.384016 0.40543,2.078298 0.01065,0.05841 -0.01124,0.184436 -0.02535,0.239237 -0.03823,0.148562 -0.107343,0.284378 -0.19435,0.410145 -0.0367,0.04931 -0.07047,0.100845 -0.110165,0.147683 -0.195221,0.231266 -0.461036,0.386071 -0.719696,0.534992 -0.143374,0.07076 -0.201984,0.105675 -0.353963,0.157182 -0.249616,0.08457 -0.513557,0.130242 -0.777123,0.121932 -0.418318,-0.01033 -0.83719,-0.04845 -1.203617,-0.270701 -0.05896,-0.03651 -0.11941,-0.07062 -0.177053,-0.109154 -0.310876,-0.20806 -0.593873,-0.460144 -0.852253,-0.729427 -0.144132,-0.162684 -0.181716,-0.200732 -0.316312,-0.374754 -0.236739,-0.306998 -0.447828,-0.633094 -0.664021,-0.954513 -0.160981,-0.237618 -0.328947,-0.471387 -0.481082,-0.71486 -0.34685,-0.555341 0.08579,0.122988 -0.174995,-0.29125 -0.01377,-0.02113 -0.02764,-0.04245 -0.0422,-0.06293 0,0 -0.09468,-2.093403 -0.09468,-2.093403 z" />
    <path
       id="path6698"
       style="opacity:1;vector-effect:none;fill:#e3c216;stroke:#000000;stroke-width:0.471427px;stop-color:#000000;stop-opacity:1"
       d="m 78.000091,52.107357 -17.720076,-6.10285 1.598935,7.61566 17.013547,6.291178 z"
       sodipodi:nodetypes="ccccc" />
    <path
       id="path6700"
       style="color:#000000;fill:#e7300f;stroke-width:1.74971;-inkscape-stroke:none"
       d="m 67.446337,48.757221 1.207678,7.210433 2.256193,0.917437 -1.23455,-7.387341 z" />
    <path
       id="path6720"
       style="font-variation-settings:normal;vector-effect:none;fill:#000000;fill-opacity:1;stroke:none;stroke-width:0.471427px;stroke-linecap:butt;stroke-linejoin:miter;stroke-miterlimit:4;stroke-dasharray:none;stroke-dashoffset:0;stroke-opacity:1;-inkscape-stroke:none;stop-color:#000000"
       d="M 95.501672,92.314746 79.028946,85.909234 61.21795,92.853358 79.701708,99.705203 Z"
       sodipodi:nodetypes="ccccc" />
    <path
       id="path6724"
       style="font-variation-settings:normal;vector-effect:none;fill:none;fill-opacity:1;stroke:#000000;stroke-width:0.471427px;stroke-linecap:butt;stroke-linejoin:miter;stroke-miterlimit:4;stroke-dasharray:none;stroke-dashoffset:0;stroke-opacity:1;-inkscape-stroke:none;stop-color:#000000"
       d="M 95.509583,92.216427 79.028946,85.909234 61.486231,92.729578"
       sodipodi:nodetypes="ccc" />
    <path
       style="font-variation-settings:normal;fill:#d12b0e;fill-opacity:1;stroke:none;stroke-width:0.0737096;stroke-linecap:butt;stroke-linejoin:miter;stroke-miterlimit:4;stroke-dasharray:none;stroke-dashoffset:0;stroke-opacity:1;stop-color:#000000"
       id="path6730"
       d="m 68.63046,84.827172 c -0.35908,0.204795 -0.73363,0.383048 -1.121775,0.525915 -0.33769,0.12436 -0.530612,0.174657 -0.876812,0.276424 -0.710266,0.18694 -1.43082,0.336061 -2.160044,0.424468 -0.503773,0.05046 -1.01514,0.06299 -1.51806,-0.0054 -0.08968,-0.01199 -0.178507,-0.03005 -0.26777,-0.04508 -0.448025,-0.0867 -0.864091,-0.268163 -1.225511,-0.547596 -0.07298,-0.05647 -0.140527,-0.11953 -0.210878,-0.179212 -0.317046,-0.288139 -0.571709,-0.63678 -0.742951,-1.029988 -0.03349,-0.07672 -0.06026,-0.156317 -0.09039,-0.234479 -0.123595,-0.377051 -0.215091,-0.77395 -0.180201,-1.173732 0.0066,-0.07577 0.02318,-0.150332 0.03475,-0.225541 0.08173,-0.254643 0.196461,-0.502685 0.412727,-0.67147 0.04395,-0.03448 0.185914,-0.123025 0.142588,-0.08774 -0.684352,0.555647 -1.377785,1.100024 -2.066692,1.650038 0.06031,-0.03063 0.117864,-0.06682 0.180777,-0.09142 0.39645,-0.155803 0.843623,-0.14354 1.2614,-0.1347 0.398499,0.01555 0.786098,0.103935 1.16775,0.21307 0.427161,0.148018 0.86143,0.273562 1.289889,0.417441 0.492655,0.17256 0.989827,0.331864 1.477381,0.518661 0.325576,0.123572 0.632568,0.287221 0.938751,0.451347 0.315836,0.166638 0.628332,0.340042 0.936114,0.521203 0.302741,0.180828 0.612007,0.350104 0.913336,0.533391 0.176346,0.09817 0.335942,0.220928 0.491259,0.348833 0.135245,0.08872 0.261734,0.187416 0.378856,0.298786 0.09161,0.08278 0.180347,0.167583 0.257288,0.264317 0,0 2.304071,-1.835742 2.304071,-1.835742 v 0 c -0.0903,-0.102191 -0.176231,-0.210254 -0.281315,-0.29784 -0.129623,-0.11026 -0.266509,-0.211554 -0.395169,-0.323071 -0.0756,-0.04996 -0.153246,-0.09054 -0.231973,-0.134922 -0.114251,-0.06454 -0.222434,-0.140794 -0.344579,-0.191032 -0.317997,-0.158945 -0.643996,-0.302302 -0.938653,-0.504542 -0.312451,-0.175734 -0.611163,-0.373532 -0.926923,-0.54279 -0.329867,-0.171353 -0.657389,-0.350979 -1.020941,-0.44232 -0.50683,-0.141298 -1.00687,-0.303696 -1.49982,-0.487866 -0.413328,-0.160335 -0.82027,-0.337317 -1.240497,-0.479635 -0.145307,-0.04775 -0.226174,-0.07742 -0.375265,-0.113427 -0.293649,-0.07107 -0.597296,-0.09759 -0.898583,-0.105244 -0.494153,-0.01518 -0.996236,-0.03677 -1.484203,0.0565 -0.791442,0.60729 -1.589892,1.205553 -2.374308,1.821911 -0.06597,0.05188 -0.160665,0.205895 -0.197008,0.277139 -0.09853,0.193133 -0.152427,0.401659 -0.177966,0.616293 -0.0072,0.08659 -0.01972,0.172757 -0.02155,0.259525 -0.0096,0.427638 0.126708,0.840408 0.261654,1.240151 0.08562,0.209118 0.11507,0.300942 0.227824,0.497725 0.18525,0.323168 0.422076,0.618541 0.70901,0.856383 0.452757,0.380515 0.932084,0.732135 1.528185,0.839625 0.0966,0.01648 0.192543,0.03693 0.28966,0.05005 0.523982,0.07054 1.059625,0.06837 1.585295,0.02494 0.304902,-0.03743 0.380319,-0.04256 0.685733,-0.100929 0.538042,-0.103629 1.066787,-0.251487 1.596561,-0.389618 0.392873,-0.101036 0.789542,-0.191458 1.178526,-0.306973 0.88707,-0.263627 -0.205961,0.04998 0.457906,-0.144729 0.03436,-0.0095 0.06901,-0.0191 0.103583,-0.02716 0,0 2.059299,-2.128708 2.059299,-2.128708 z" />
    <path
       id="path6732"
       style="opacity:1;vector-effect:none;fill:#c5a813;fill-opacity:1;stroke:#000000;stroke-width:0.471427px;stop-color:#000000;stop-opacity:1"
       d="m 59.732804,86.51309 18.249244,-6.632017 1.046898,6.028161 -17.542715,6.820345 z"
       sodipodi:nodetypes="ccccc" />
    <path
       id="path6734"
       style="opacity:1;vector-effect:none;fill:#c5a813;fill-opacity:1;stroke:#000000;stroke-width:0.471427px;stop-color:#000000;stop-opacity:1"
       d="m 97.84895,86.174585 -17.720076,-6.102851 -1.046898,6.028161 17.013547,6.291178 z"
       sodipodi:nodetypes="ccccc" />
  </g>
</svg>
